<svg xmlns="http://www.w3.org/2000/svg" viewBox="0 0 360 300" font-family="Arial, sans-serif" font-size="14" fill="#1c2430">
  <defs>
    <g id="axes" stroke="#1c2430" stroke-width="1.5" fill="none">
      <line x1="25" y1="15" x2="25" y2="128"/><line x1="25" y1="70" x2="168" y2="70"/>
      <path d="M163 66 L170 70 L163 74"/><path d="M21 21 L25 13 L29 21"/>
    </g>
  </defs>
  <!-- A -->
  <g transform="translate(0,0)">
    <use href="#axes"/><text x="4" y="22" font-weight="bold">A</text>
    <text x="32" y="22" font-size="12">v</text><text x="158" y="88" font-size="12">t</text>
    <polyline points="25,25 92,70 160,25" fill="none" stroke="#1f5fbf" stroke-width="3"/>
  </g>
  <!-- B -->
  <g transform="translate(180,0)">
    <use href="#axes"/><text x="4" y="22" font-weight="bold">B</text>
    <text x="32" y="22" font-size="12">v</text><text x="158" y="88" font-size="12">t</text>
    <line x1="25" y1="25" x2="160" y2="115" stroke="#1f5fbf" stroke-width="3"/>
  </g>
  <!-- C -->
  <g transform="translate(0,150)">
    <use href="#axes"/><text x="4" y="22" font-weight="bold">C</text>
    <text x="32" y="22" font-size="12">v</text><text x="158" y="88" font-size="12">t</text>
    <polyline points="25,25 92,70 160,70" fill="none" stroke="#1f5fbf" stroke-width="3"/>
  </g>
  <!-- D -->
  <g transform="translate(180,150)">
    <use href="#axes"/><text x="4" y="22" font-weight="bold">D</text>
    <text x="32" y="22" font-size="12">v</text><text x="158" y="88" font-size="12">t</text>
    <line x1="25" y1="115" x2="160" y2="25" stroke="#1f5fbf" stroke-width="3"/>
  </g>
</svg>
