<svg xmlns="http://www.w3.org/2000/svg" viewBox="0 0 340 175" font-family="Arial, sans-serif" font-size="15" fill="#1c2430">
<line fill="none" stroke="#1c2430" stroke-width="1.5" x1="40" y1="150" x2="40.0" y2="127.5"/><line fill="none" stroke="#1c2430" stroke-width="1.5" x1="40.0" y1="117.5" x2="40" y2="95"/><g transform="rotate(90 40.0 122.5)"><line fill="none" stroke="#1c2430" stroke-width="1.5" x1="35.0" y1="108.5" x2="35.0" y2="136.5"/><line fill="none" stroke="#1c2430" stroke-width="1.5" style="stroke-width:4" x1="45.0" y1="115.5" x2="45.0" y2="129.5"/></g><line fill="none" stroke="#1c2430" stroke-width="1.5" x1="40" y1="95" x2="40.0" y2="83.5"/><line fill="none" stroke="#1c2430" stroke-width="1.5" x1="40.0" y1="51.5" x2="40" y2="40"/><g transform="rotate(90 40.0 67.5)"><rect x="24.0" y="60.5" width="32" height="14" fill="none" stroke="#1c2430" stroke-width="1.5"/></g><line fill="none" stroke="#1c2430" stroke-width="1.5" x1="40" y1="40" x2="79.0" y2="40.0"/><line fill="none" stroke="#1c2430" stroke-width="1.5" x1="111.0" y1="40.0" x2="150" y2="40"/><g><rect x="79.0" y="33.0" width="32" height="14" fill="none" stroke="#1c2430" stroke-width="1.5"/></g><text x="95.0" y="18.0" text-anchor="middle" font-size="14">4.0 Ω</text><line fill="none" stroke="#1c2430" stroke-width="1.5" x1="150" y1="40" x2="180" y2="40"/><line fill="none" stroke="#1c2430" stroke-width="1.5" x1="180" y1="40" x2="219.0" y2="40.0"/><line fill="none" stroke="#1c2430" stroke-width="1.5" x1="251.0" y1="40.0" x2="290" y2="40"/><g><rect x="219.0" y="33.0" width="32" height="14" fill="none" stroke="#1c2430" stroke-width="1.5"/></g><text x="235.0" y="18.0" text-anchor="middle" font-size="14">6.0 Ω</text><line fill="none" stroke="#1c2430" stroke-width="1.5" x1="180" y1="100" x2="219.0" y2="100.0"/><line fill="none" stroke="#1c2430" stroke-width="1.5" x1="251.0" y1="100.0" x2="290" y2="100"/><g><rect x="219.0" y="93.0" width="32" height="14" fill="none" stroke="#1c2430" stroke-width="1.5"/></g><text x="235.0" y="78.0" text-anchor="middle" font-size="14">3.0 Ω</text><line fill="none" stroke="#1c2430" stroke-width="1.5" x1="180" y1="40" x2="180" y2="100"/><line fill="none" stroke="#1c2430" stroke-width="1.5" x1="290" y1="40" x2="290" y2="100"/><line fill="none" stroke="#1c2430" stroke-width="1.5" x1="290" y1="40" x2="320" y2="40"/><line fill="none" stroke="#1c2430" stroke-width="1.5" x1="320" y1="40" x2="320" y2="150"/><line fill="none" stroke="#1c2430" stroke-width="1.5" x1="320" y1="150" x2="40" y2="150"/><circle cx="180" cy="40" r="3.5" fill="#1c2430"/><circle cx="290" cy="40" r="3.5" fill="#1c2430"/><rect x="14" y="52" width="52" height="112" fill="none" stroke="#c2561a" stroke-dasharray="5 4"/><text x="74" y="72" font-size="14">r</text><text x="74" y="128" font-size="14">ε</text>
</svg>
