<svg xmlns="http://www.w3.org/2000/svg" viewBox="0 0 340 220" font-family="Arial, sans-serif" font-size="14" fill="#1c2430">
  <g fill="#8a94a3"><circle cx="70" cy="50" r="2.5"/><circle cx="70" cy="50" r="7" fill="none" stroke="#8a94a3" stroke-width="1"/><circle cx="70" cy="110" r="2.5"/><circle cx="70" cy="110" r="7" fill="none" stroke="#8a94a3" stroke-width="1"/><circle cx="70" cy="170" r="2.5"/><circle cx="70" cy="170" r="7" fill="none" stroke="#8a94a3" stroke-width="1"/><circle cx="130" cy="50" r="2.5"/><circle cx="130" cy="50" r="7" fill="none" stroke="#8a94a3" stroke-width="1"/><circle cx="130" cy="110" r="2.5"/><circle cx="130" cy="110" r="7" fill="none" stroke="#8a94a3" stroke-width="1"/><circle cx="130" cy="170" r="2.5"/><circle cx="130" cy="170" r="7" fill="none" stroke="#8a94a3" stroke-width="1"/><circle cx="190" cy="50" r="2.5"/><circle cx="190" cy="50" r="7" fill="none" stroke="#8a94a3" stroke-width="1"/><circle cx="190" cy="110" r="2.5"/><circle cx="190" cy="110" r="7" fill="none" stroke="#8a94a3" stroke-width="1"/><circle cx="190" cy="170" r="2.5"/><circle cx="190" cy="170" r="7" fill="none" stroke="#8a94a3" stroke-width="1"/><circle cx="250" cy="110" r="2.5"/><circle cx="250" cy="110" r="7" fill="none" stroke="#8a94a3" stroke-width="1"/><circle cx="250" cy="170" r="2.5"/><circle cx="250" cy="170" r="7" fill="none" stroke="#8a94a3" stroke-width="1"/></g>
  <circle cx="100" cy="140" r="11" fill="#fde3e3" stroke="#1c2430" stroke-width="1.5"/>
  <text x="100" y="145" text-anchor="middle" font-size="15" font-weight="bold">+</text>
  <g stroke="#1f5fbf" stroke-width="2.5" fill="none"><path d="M114 140 H200 M192 134 L201 140 L192 146"/></g>
  <text x="156" y="132" text-anchor="middle" font-size="14" font-style="italic">v</text>
  <g stroke="#1c2430" stroke-width="1.5" fill="none"><path d="M290 62 V30 M285 36 L290 28 L295 36 M290 62 V92 M290 62 H260 M290 62 H320"/></g>
  <text x="290" y="20" text-anchor="middle" font-size="13" font-weight="bold">N</text>
  <text x="290" y="107" text-anchor="middle" font-size="13">S</text>
  <text x="255" y="67" text-anchor="end" font-size="13">W</text>
  <text x="325" y="67" font-size="13">E</text>
  <text x="10" y="210" font-size="13">View from above. ⊙ field points up, out of the page</text>
</svg>